<?xml version="1.0" encoding="UTF-8"?>
<svg version="1.1" xmlns="http://www.w3.org/2000/svg" width="500" height="500">
<path d="M0 0 C165 0 330 0 500 0 C500 165 500 330 500 500 C335 500 170 500 0 500 C0 335 0 170 0 0 Z " fill="#F37227" transform="translate(0,0)"/>
<path d="M0 0 C2.8100346 1.79363911 4.50940468 3.01880935 6 6 C6.07194869 8.88370333 6.09291708 11.74239664 6.0625 14.625 C6.05798828 15.42679688 6.05347656 16.22859375 6.04882812 17.0546875 C6.03703168 19.03649006 6.01909605 21.01825433 6 23 C6.78847321 22.99111755 7.57694641 22.98223511 8.38931274 22.9730835 C15.83377813 22.89280852 23.27803253 22.83197051 30.72281837 22.79275131 C34.54993842 22.77191011 38.37669969 22.743657 42.20361328 22.69824219 C45.8994739 22.65465899 49.59499026 22.63083682 53.2910881 22.62049103 C54.69847403 22.61312187 56.10584193 22.59873137 57.5130806 22.57707977 C59.48981471 22.54788608 61.46689804 22.54636475 63.44384766 22.54589844 C64.56747711 22.53701599 65.69110657 22.52813354 66.8487854 22.51898193 C71.78268592 23.27211861 75.83094925 26.16378068 79 30 C82.54406125 40.63218375 82.4940239 57.08699595 80 68 C76.31885592 75.23266156 69.4349169 78.52169437 62 81 C62.38498729 78.56706256 62.70903063 77.28577433 64.49047852 75.53613281 C65.42525024 74.87629395 65.42525024 74.87629395 66.37890625 74.203125 C67.05244141 73.71972656 67.72597656 73.23632812 68.41992188 72.73828125 C69.12697266 72.24714844 69.83402344 71.75601563 70.5625 71.25 C71.27341797 70.74339844 71.98433594 70.23679687 72.71679688 69.71484375 C74.47101432 68.46687697 76.23463359 67.23214503 78 66 C74.60049396 62.54178055 71.12208261 59.37584075 67.35546875 56.33203125 C66.90816406 55.89246094 66.46085937 55.45289063 66 55 C66 54.34 66 53.68 66 53 C64.68 53.33 63.36 53.66 62 54 C61.01 52.02 61.01 52.02 60 50 C50.62964062 49.97687496 41.25929099 49.95908409 31.88890934 49.94818783 C27.53831541 49.94295935 23.18774093 49.93586235 18.8371582 49.92456055 C14.64209742 49.91373041 10.44705541 49.9077229 6.25198174 49.90512276 C4.64793032 49.90326874 3.04387997 49.89964856 1.4398365 49.89426994 C-0.79916515 49.88705781 -3.0380883 49.88600913 -5.27709961 49.88647461 C-6.55395126 49.884254 -7.83080292 49.88203339 -9.14634705 49.87974548 C-11.89888855 49.67331911 -11.89888855 49.67331911 -13 51 C-13.09436529 53.23929886 -13.11742327 55.4816175 -13.11352539 57.72290039 C-13.11367142 58.4253035 -13.11381744 59.1277066 -13.1139679 59.85139465 C-13.11326872 62.18351278 -13.10547617 64.515552 -13.09765625 66.84765625 C-13.09579208 68.46048438 -13.09436818 70.07331307 -13.09336853 71.68614197 C-13.08954323 75.93915357 -13.07971285 80.19213124 -13.06866455 84.44512939 C-13.05845069 88.7817743 -13.05387096 93.11842467 -13.04882812 97.45507812 C-13.03809059 105.97006769 -13.02101403 114.48502963 -13 123 C-12.35679306 122.98366013 -11.71358612 122.96732025 -11.05088806 122.95048523 C-4.28427286 122.7917264 2.4788859 122.72667075 9.24731445 122.71313477 C11.76418289 122.69622357 14.28101569 122.65635405 16.79711914 122.59204102 C41.03458975 122.00017902 41.03458975 122.00017902 50.12109375 130.39453125 C53.11186368 133.37129861 55.65422688 136.48134033 58 140 C53.38 140.33 48.76 140.66 44 141 C43.67 145.62 43.34 150.24 43 155 C45.62506802 155.02690844 48.24986173 155.04679404 50.875 155.0625 C51.62136719 155.07087891 52.36773437 155.07925781 53.13671875 155.08789062 C57.19845578 155.20688084 57.19845578 155.20688084 61 154 C61.46751788 151.64400765 61.46751788 151.64400765 61.625 148.9375 C61.69976562 148.01839844 61.77453125 147.09929687 61.8515625 146.15234375 C61.92503906 145.08693359 61.92503906 145.08693359 62 144 C69.38662618 147.53585762 76.00058188 152.7418952 80 160 C82.09720428 167.56911645 81.72668409 175.47744244 81.44067383 183.26074219 C81.31193847 186.89083406 81.297113 190.50847655 81.29882812 194.140625 C81.26443908 196.46625326 81.22364798 198.7917976 81.17578125 201.1171875 C81.16799149 202.19128876 81.16020172 203.26539001 81.1521759 204.37203979 C80.85726523 211.07674371 79.47675705 214.72551832 74.78288269 219.57009888 C70.7701619 222.78836668 66.07769691 222.15472757 61.20166016 222.16113281 C60.30217148 222.16609772 59.4026828 222.17106262 58.47593689 222.17617798 C55.49697101 222.19079653 52.51805837 222.19760082 49.5390625 222.203125 C47.47024534 222.20887634 45.40142821 222.21463408 43.33261108 222.22039795 C38.99322257 222.23090681 34.65385258 222.23675035 30.31445312 222.24023438 C24.75362939 222.24572133 19.19305023 222.26975423 13.63230324 222.29820633 C9.35836063 222.31682722 5.08447703 222.322038 0.81049728 222.32357025 C-1.23962365 222.32659813 -3.28974351 222.3346312 -5.33982468 222.34775543 C-8.2076964 222.36480561 -11.07496928 222.36293823 -13.94287109 222.35644531 C-14.78980026 222.3656601 -15.63672943 222.37487488 -16.50932312 222.3843689 C-21.1501193 222.35144722 -24.31871757 222.12299172 -28 219 C-31.66690025 214.38917355 -32.5012084 211.3470194 -32.50793457 205.49208069 C-32.51417453 204.75685368 -32.5204145 204.02162666 -32.52684355 203.26412004 C-32.54274271 200.8112476 -32.53018203 198.35937318 -32.51757812 195.90649414 C-32.52300068 194.14358441 -32.53012409 192.38067922 -32.53881836 190.61778259 C-32.5570401 185.83671542 -32.54998857 181.05599385 -32.53730202 176.2749207 C-32.52716683 171.26802347 -32.53656929 166.26115561 -32.54284668 161.2542572 C-32.55012224 152.84531346 -32.54053847 144.43651028 -32.52148438 136.02758789 C-32.4997229 126.31177849 -32.50676212 116.59630495 -32.52879 106.88050371 C-32.54695503 98.5338164 -32.5494967 90.18723008 -32.53903532 81.84052938 C-32.53280556 76.85762526 -32.53195042 71.87487887 -32.54518127 66.89198494 C-32.55675493 62.2059149 -32.54868635 57.5202768 -32.52560425 52.83425331 C-32.52032495 51.11659715 -32.5218176 49.39890451 -32.53065491 47.68126297 C-32.5416255 45.3319892 -32.52783019 42.98408972 -32.50793457 40.63490295 C-32.50642647 39.32176652 -32.50491837 38.00863008 -32.50336456 36.65570164 C-31.87545989 32.09552339 -30.59267173 29.78580296 -28 26 C-24.57905758 23.71937172 -23.31812778 23.78074993 -19.3125 23.875 C-17.82169922 23.90207031 -17.82169922 23.90207031 -16.30078125 23.9296875 C-15.54152344 23.95289062 -14.78226563 23.97609375 -14 24 C-14.06960937 22.68644531 -14.13921875 21.37289062 -14.2109375 20.01953125 C-14.26722807 18.28390542 -14.32182683 16.54822414 -14.375 14.8125 C-14.45041016 13.51602539 -14.45041016 13.51602539 -14.52734375 12.19335938 C-14.67108547 5.94059447 -14.67108547 5.94059447 -12.78051758 3.29077148 C-8.3642685 -0.60935587 -5.55509782 -0.7935854 0 0 Z " fill="#FEFCFA" transform="translate(161,89)"/>
<path d="M0 0 C2.3170291 0.90309181 3.4733683 1.91074673 5.18945312 3.70043945 C5.76751709 4.29332764 6.34558105 4.88621582 6.94116211 5.49707031 C7.54387939 6.1287915 8.14659668 6.7605127 8.76757812 7.41137695 C10.02218994 8.69838675 11.27868499 9.98356355 12.53710938 11.2668457 C13.13861816 11.88092285 13.74012695 12.495 14.35986328 13.12768555 C16.8867739 15.65608477 19.57082441 17.9713206 22.29101562 20.28637695 C28.05676025 25.29553066 33.05274053 31.00346953 38.01757812 36.78637695 C38.91280925 37.80643703 39.80869247 38.82592503 40.70507812 39.8449707 C54.14942779 55.20930462 67.23859583 71.79678683 76.23632812 90.22387695 C77.75899605 93.73861338 77.75899605 93.73861338 80.01757812 95.78637695 C80.75307901 97.45475889 81.48385018 99.12556628 82.17871094 100.8112793 C83.59646211 104.14934885 85.25610693 107.36395556 86.89257812 110.59887695 C87.24118896 111.2966626 87.5897998 111.99444824 87.94897461 112.71337891 C89.48873415 115.79040819 91.04928418 118.84503686 92.68554688 121.87231445 C93.14574219 122.73083008 93.6059375 123.5893457 94.08007812 124.47387695 C94.48355469 125.19961914 94.88703125 125.92536133 95.30273438 126.6730957 C96.25889016 129.49976391 96.04013305 130.9910958 95.01757812 133.78637695 C93.18164062 135.5324707 93.18164062 135.5324707 90.64257812 137.22387695 C89.64484375 137.9096582 88.64710938 138.59543945 87.61914062 139.30200195 C87.05098633 139.68936523 86.48283203 140.07672852 85.89746094 140.47583008 C83.02077883 142.48128846 80.22265022 144.58935717 77.4128418 146.68701172 C69.24723305 152.77855085 60.96171397 158.65707922 52.51171875 164.34765625 C51.77759766 164.84305908 51.04347656 165.33846191 50.28710938 165.84887695 C49.22484131 166.56430664 49.22484131 166.56430664 48.14111328 167.29418945 C45.24329914 169.33045527 42.49055798 171.53916605 39.75073242 173.7824707 C39.1787915 174.11375977 38.60685059 174.44504883 38.01757812 174.78637695 C35.01757812 173.78637695 35.01757812 173.78637695 33.73413086 171.83129883 C33.31075439 170.98116211 32.88737793 170.13102539 32.45117188 169.25512695 C31.97075439 168.30758545 31.49033691 167.36004395 30.99536133 166.38378906 C30.23292114 164.85057007 30.23292114 164.85057007 29.45507812 163.28637695 C21.79010036 148.23910311 13.27595539 133.89953683 4.01757812 119.78637695 C3.28861328 118.64555664 3.28861328 118.64555664 2.54492188 117.48168945 C-4.44753761 106.67701445 -12.37748267 96.44867692 -20.79492188 86.72387695 C-21.30933838 86.12945801 -21.82375488 85.53503906 -22.35375977 84.92260742 C-24.95412358 81.96255231 -27.62520073 79.11856139 -30.43164062 76.3527832 C-32.86197197 73.95513643 -35.14724086 71.49207546 -37.37304688 68.90356445 C-41.2907003 64.36652783 -45.48421634 60.13734057 -49.73242188 55.91137695 C-50.48652344 55.1534082 -51.240625 54.39543945 -52.01757812 53.61450195 C-52.74332031 52.89004883 -53.4690625 52.1655957 -54.21679688 51.41918945 C-54.86874023 50.76837402 -55.52068359 50.11755859 -56.19238281 49.44702148 C-58.08435906 47.60341636 -58.08435906 47.60341636 -60.98242188 45.78637695 C-59.65218879 42.71893888 -58.36722317 41.01953053 -55.67382812 39.05200195 C-54.68576172 38.32110352 -54.68576172 38.32110352 -53.67773438 37.57543945 C-52.97390625 37.06754883 -52.27007812 36.5596582 -51.54492188 36.03637695 C-50.81917969 35.50270508 -50.0934375 34.9690332 -49.34570312 34.41918945 C-47.23054344 32.86657224 -45.10792256 31.32479483 -42.98242188 29.78637695 C-42.01175781 29.0799707 -41.04109375 28.37356445 -40.04101562 27.64575195 C-38.32134456 26.3960368 -36.59996027 25.14867606 -34.87695312 23.90356445 C-31.97528895 21.78115962 -29.10009842 19.62697707 -26.22949219 17.46289062 C-23.49873003 15.40575531 -20.76041009 13.35882673 -18.02099609 11.31323242 C-16.66548681 10.29798032 -15.3129206 9.27878651 -13.96337891 8.25561523 C-12.06182465 6.81618234 -10.14884192 5.39342849 -8.23242188 3.97387695 C-7.66031982 3.5351123 -7.08821777 3.09634766 -6.4987793 2.64428711 C-2.51570773 -0.2710892 -2.51570773 -0.2710892 0 0 Z " fill="#FEFDFC" transform="translate(274.982421875,135.213623046875)"/>
<path d="M0 0 C1.19882813 -0.07444336 1.19882813 -0.07444336 2.421875 -0.15039062 C5.76768746 -0.20817193 8.23819445 -0.18494843 10.98803711 1.84643555 C14.88464228 6.175095 17.60265712 11.37852661 20.3125 16.5 C23.43786712 22.32118141 26.67612139 28.00302791 30.25 33.5625 C32.7792766 31.18369028 34.41041484 28.7253821 36.08984375 25.671875 C37.42334694 23.24732374 38.80161601 20.84940918 40.17749023 18.44873047 C41.22743559 16.60218419 42.25868922 14.74640051 43.28515625 12.88671875 C43.9609375 11.67447917 44.63671875 10.46223958 45.3125 9.25 C45.65087891 8.63060547 45.98925781 8.01121094 46.33789062 7.37304688 C48.0918104 4.24855923 49.2128331 2.58727793 52.25 0.5625 C54.21118164 0.30371094 54.21118164 0.30371094 56.41015625 0.296875 C57.20357422 0.29429687 57.99699219 0.29171875 58.81445312 0.2890625 C59.63880859 0.29679687 60.46316406 0.30453125 61.3125 0.3125 C62.14072266 0.30476563 62.96894531 0.29703125 63.82226562 0.2890625 C64.61439453 0.29164063 65.40652344 0.29421875 66.22265625 0.296875 C66.94718994 0.29913086 67.67172363 0.30138672 68.41821289 0.30371094 C70.25 0.5625 70.25 0.5625 72.25 2.5625 C72.438174 5.39423095 72.5017338 8.12740752 72.47705078 10.95947266 C72.47734283 11.82783249 72.47763489 12.69619232 72.47793579 13.59086609 C72.47653917 16.46953218 72.46096242 19.34794146 72.4453125 22.2265625 C72.44158355 24.2191046 72.43873602 26.21164853 72.43673706 28.20419312 C72.42909132 33.45512939 72.40943477 38.70595548 72.3873291 43.95684814 C72.36689091 49.31236276 72.35773969 54.66789514 72.34765625 60.0234375 C72.32618975 70.53650681 72.29204249 81.04949425 72.25 91.5625 C68.60418313 91.59137512 64.95839537 91.60925585 61.3125 91.625 C60.27158203 91.63337891 59.23066406 91.64175781 58.15820312 91.65039062 C57.16884766 91.65361328 56.17949219 91.65683594 55.16015625 91.66015625 C53.78549194 91.66801147 53.78549194 91.66801147 52.38305664 91.67602539 C50.25 91.5625 50.25 91.5625 49.25 90.5625 C49.1275669 89.05933231 49.07223715 87.55061833 49.04467773 86.04272461 C49.0147599 84.60134377 49.0147599 84.60134377 48.98423767 83.13084412 C48.96752518 82.086064 48.95081268 81.04128387 48.93359375 79.96484375 C48.91281265 78.90084854 48.89203156 77.83685333 48.87062073 76.74061584 C48.80500746 73.3271456 48.74618577 69.91359571 48.6875 66.5 C48.64432597 64.19204891 48.60071206 61.884106 48.55664062 59.57617188 C48.44931411 53.90503045 48.34808024 48.23380857 48.25 42.5625 C46.6 45.5325 44.95 48.5025 43.25 51.5625 C42.59 51.5625 41.93 51.5625 41.25 51.5625 C40.92 53.2125 40.59 54.8625 40.25 56.5625 C39.59 56.5625 38.93 56.5625 38.25 56.5625 C37.59 57.8825 36.93 59.2025 36.25 60.5625 C31.82931912 61.81232601 28.64157309 62.00930777 24.25 60.5625 C21.8155829 57.80087897 20.10565921 54.70584952 18.33203125 51.4921875 C17.59031677 50.21202759 17.59031677 50.21202759 16.83361816 48.90600586 C15.61850754 46.80216641 14.42546604 44.68866422 13.25 42.5625 C13.23969254 43.14909897 13.22938507 43.73569794 13.21876526 44.34007263 C13.11092806 50.4228787 12.99631244 56.50552974 12.87768555 62.58813477 C12.83426335 64.86088836 12.79259384 67.13367613 12.75268555 69.40649414 C12.69515881 72.66563232 12.63141448 75.92459731 12.56640625 79.18359375 C12.54133751 80.71795326 12.54133751 80.71795326 12.51576233 82.28330994 C12.49581711 83.22420975 12.47587189 84.16510956 12.45532227 85.13452148 C12.43977798 85.96725082 12.4242337 86.79998016 12.40821838 87.65794373 C12.25 89.5625 12.25 89.5625 11.25 90.5625 C9.61527118 90.64950342 7.97685945 90.66951063 6.33984375 90.66015625 C5.35048828 90.65693359 4.36113281 90.65371094 3.34179688 90.65039062 C2.30087891 90.64201172 1.25996094 90.63363281 0.1875 90.625 C-0.85728516 90.62048828 -1.90207031 90.61597656 -2.97851562 90.61132812 C-5.5690666 90.59949913 -8.15950559 90.58301689 -10.75 90.5625 C-10.79626844 79.12328364 -10.83184119 67.68408941 -10.85362434 56.24479866 C-10.86407729 50.93351062 -10.87826397 45.62228644 -10.90087891 40.31103516 C-10.92255352 35.18877405 -10.93455723 30.0665745 -10.93975449 24.94427109 C-10.94345994 22.9865713 -10.95069541 21.02887502 -10.96146011 19.07120132 C-10.97590357 16.33661779 -10.97798096 13.6022911 -10.97705078 10.86767578 C-10.98424133 10.05200134 -10.99143188 9.2363269 -10.99884033 8.39593506 C-10.96755393 -0.06136359 -7.53022225 0.13702145 0 0 Z " fill="#FEFCFB" transform="translate(188.75,336.4375)"/>
<path d="M0 0 C2.89700736 1.08898298 4.65835031 2.7818172 6.921875 4.87890625 C7.72109375 5.61238281 8.5203125 6.34585938 9.34375 7.1015625 C9.94703125 7.66746094 10.5503125 8.23335937 11.171875 8.81640625 C7.69631955 12.42637545 4.1140132 15.52943155 0.109375 18.56640625 C-0.4477417 18.99034668 -1.0048584 19.41428711 -1.57885742 19.85107422 C-3.32511579 21.17755185 -5.07587655 22.49785384 -6.828125 23.81640625 C-7.41271484 24.25694336 -7.99730469 24.69748047 -8.59960938 25.15136719 C-12.00309833 27.71446498 -15.41295918 30.26887715 -18.828125 32.81640625 C-15.8750201 39.87465148 -8.83937416 45.19039505 -3.078125 50.00390625 C2.88270486 55.11318898 8.04391341 61.06482993 13.34619141 66.83789062 C15.1137542 68.75342003 16.89540729 70.6545093 18.68359375 72.55078125 C38.42182334 93.50864566 53.30016722 117.46555353 66.99902344 142.68798828 C67.83984369 144.21385652 68.69952419 145.72939031 69.57128906 147.23779297 C70.25916504 148.4349292 70.25916504 148.4349292 70.9609375 149.65625 C71.59443115 150.74280884 71.59443115 150.74280884 72.24072266 151.85131836 C73.171875 153.81640625 73.171875 153.81640625 73.171875 156.81640625 C71.52734375 158.60546875 71.52734375 158.60546875 69.359375 160.44140625 C68.29783203 161.35792969 68.29783203 161.35792969 67.21484375 162.29296875 C65.171875 163.81640625 65.171875 163.81640625 62.171875 164.81640625 C60.56531826 162.5889289 58.96157821 160.35951183 57.359375 158.12890625 C56.90755859 157.50306641 56.45574219 156.87722656 55.99023438 156.23242188 C53.55390173 152.83578293 51.31690895 149.40616744 49.171875 145.81640625 C42.89183783 136.36568753 36.19611479 127.34492509 28.74609375 118.7890625 C26.3604522 116.03417142 24.0716148 113.22543857 21.796875 110.37890625 C14.58001909 101.52951201 6.89294804 92.76344428 -1.89453125 85.4375 C-4.14748211 83.54866241 -6.29191818 81.55948028 -8.453125 79.56640625 C-16.42034108 72.37378062 -24.99094363 65.884317 -33.609375 59.49609375 C-39.08035925 55.3543275 -44.44212512 51.06771515 -49.828125 46.81640625 C-48.25408967 42.81650471 -45.64119766 40.6279349 -42.453125 37.81640625 C-38.02163155 33.85961934 -33.74614177 29.79981937 -29.578125 25.56640625 C-25.84389401 21.78327604 -22.0306041 18.18433157 -17.9765625 14.74609375 C-14.45833752 11.58608804 -11.16762198 8.19592221 -7.86328125 4.81445312 C-2.84793446 -0.28601051 -2.84793446 -0.28601051 0 0 Z " fill="#FEFCFA" transform="translate(225.828125,145.18359375)"/>
<path d="M0 0 C6.4180012 4.64793333 9.90124575 10.97394172 11.578125 18.64453125 C13.26464403 32.05860391 13.7653111 45.83409463 5.42578125 57.1328125 C0.27270609 62.87446733 -6.43776013 66.06869455 -14.12109375 66.56640625 C-15.89301428 66.59403341 -17.66561193 66.59213616 -19.4375 66.5625 C-20.36183838 66.55154297 -21.28617676 66.54058594 -22.23852539 66.52929688 C-30.18165585 66.27648749 -36.05209481 64.99128877 -41.77734375 59.203125 C-43.43556557 57.17595896 -44.73379158 55.29820488 -46 53 C-46.51300659 52.09314453 -46.51300659 52.09314453 -47.03637695 51.16796875 C-50.37836295 44.63081576 -50.57201443 38.74642251 -50.4375 31.5 C-50.44458984 30.42363281 -50.45167969 29.34726562 -50.45898438 28.23828125 C-50.38567726 18.97902921 -48.84912703 9.76835902 -42 3 C-30.03573672 -5.60416986 -13.19181294 -7.57017449 0 0 Z " fill="#FEFBF9" transform="translate(322,361)"/>
<path d="M0 0 C0.63164063 0.40089844 1.26328125 0.80179687 1.9140625 1.21484375 C7.64363971 5.42059723 9.80944708 10.29558047 12 17 C12 23.27 12 29.54 12 36 C-0.54 36 -13.08 36 -26 36 C-24.79044682 43.38053349 -24.79044682 43.38053349 -22.29589844 45.98168945 C-19.17305633 47.36677818 -16.67788795 47.33786695 -13.265625 47.29296875 C-11.32236328 47.2784668 -11.32236328 47.2784668 -9.33984375 47.26367188 C-7.97655646 47.23860783 -6.61327521 47.21321302 -5.25 47.1875 C-3.87110816 47.17244518 -2.49220065 47.15875817 -1.11328125 47.14648438 C2.25798064 47.11112149 5.62903986 47.05731481 9 47 C9 51.95 9 56.9 9 62 C-2.54295673 67.64322329 -16.97576468 69.11505118 -29.4375 65.875 C-37.01569641 63.18108965 -43.22080284 58.1482489 -47 51 C-49.39671715 44.67688961 -49.36746611 38.94009158 -49.375 32.25 C-49.39949219 31.12078125 -49.42398438 29.9915625 -49.44921875 28.828125 C-49.48535723 18.42024272 -47.13116174 10.35333346 -39.93359375 2.69140625 C-29.85767928 -6.12247449 -11.1132059 -7.47914068 0 0 Z " fill="#FEFBF9" transform="translate(116,361)"/>
<path d="M0 0 C7.45674399 7.64316259 6.64674087 15.13676273 6.59765625 25.40234375 C6.5962413 26.52443741 6.59482635 27.64653107 6.59336853 28.80262756 C6.587794 32.36844608 6.57524616 35.93420062 6.5625 39.5 C6.55748171 41.9251293 6.55291938 44.35025959 6.54882812 46.77539062 C6.53783291 52.70445154 6.52058583 58.63346494 6.5 64.5625 C0.89 64.5625 -4.72 64.5625 -10.5 64.5625 C-10.83 63.2425 -11.16 61.9225 -11.5 60.5625 C-12.04269531 60.83964844 -12.58539063 61.11679687 -13.14453125 61.40234375 C-14.21767578 61.94568359 -14.21767578 61.94568359 -15.3125 62.5 C-16.37404297 63.03947266 -16.37404297 63.03947266 -17.45703125 63.58984375 C-23.5291839 66.48079214 -29.76358396 66.25815297 -36.1875 64.5625 C-41.27045752 62.71091477 -43.89699691 59.17353405 -46.5 54.5625 C-47.69104332 50.98937005 -47.70528823 48.01696678 -47.75 44.25 C-47.78867187 42.30673828 -47.78867187 42.30673828 -47.828125 40.32421875 C-47.39234281 35.32828717 -45.86811999 32.05888124 -42.5 28.375 C-33.18050902 22.7444742 -22.99878978 23.20683209 -12.5 23.5625 C-12.53317239 22.12402439 -12.60273877 20.6863593 -12.6875 19.25 C-12.73970703 18.04923828 -12.73970703 18.04923828 -12.79296875 16.82421875 C-13.3184663 14.36761345 -13.3184663 14.36761345 -15.671875 12.93945312 C-18.886119 11.37450698 -20.90224283 11.2148422 -24.45703125 11.26953125 C-25.56884766 11.27919922 -26.68066406 11.28886719 -27.82617188 11.29882812 C-28.97666016 11.32396484 -30.12714844 11.34910156 -31.3125 11.375 C-32.48232422 11.38853516 -33.65214844 11.40207031 -34.85742188 11.41601562 C-37.73847904 11.45129388 -40.6192987 11.50509857 -43.5 11.5625 C-43.5 6.9425 -43.5 2.3225 -43.5 -2.4375 C-31.34916897 -7.29783241 -10.84069018 -8.56678931 0 0 Z " fill="#FEFCFA" transform="translate(426.5,362.4375)"/>
<path d="M0 0 C0.87454834 0.00523682 1.74909668 0.01047363 2.65014648 0.01586914 C3.59438477 0.0190918 4.53862305 0.02231445 5.51147461 0.02563477 C6.50469727 0.03401367 7.49791992 0.04239258 8.52124023 0.05102539 C9.51833008 0.05553711 10.51541992 0.06004883 11.54272461 0.06469727 C14.01478872 0.07652532 16.48673541 0.0930069 18.95874023 0.11352539 C18.98186239 11.83079327 18.99965467 23.54805576 19.01055241 35.26534176 C19.01578152 40.70554851 19.02287966 46.1457397 19.03417969 51.5859375 C19.04500758 56.83138241 19.05101686 62.07681231 19.05361748 67.32226753 C19.0554719 69.32823485 19.05909285 71.33420131 19.06447029 73.34016228 C19.07167942 76.13955363 19.07273123 78.93888218 19.07226562 81.73828125 C19.0758609 82.57625244 19.07945618 83.41422363 19.0831604 84.27758789 C19.0727924 89.99947323 19.0727924 89.99947323 17.95874023 91.11352539 C16.48221359 91.21233336 15.00106788 91.24431785 13.52124023 91.24633789 C12.17932617 91.24827148 12.17932617 91.24827148 10.81030273 91.25024414 C9.3987793 91.24444336 9.3987793 91.24444336 7.95874023 91.23852539 C6.5472168 91.24432617 6.5472168 91.24432617 5.10717773 91.25024414 C4.21256836 91.24895508 3.31795898 91.24766602 2.39624023 91.24633789 C1.56995117 91.24520996 0.74366211 91.24408203 -0.10766602 91.24291992 C-2.04125977 91.11352539 -2.04125977 91.11352539 -3.04125977 90.11352539 C-3.1417619 87.34951131 -3.17742052 84.61045313 -3.1706543 81.84594727 C-3.17240662 80.97933975 -3.17415894 80.11273224 -3.17596436 79.21986389 C-3.18038401 76.34064766 -3.17744448 73.4614923 -3.17407227 70.58227539 C-3.17474527 68.59069812 -3.17571527 66.59912093 -3.17697144 64.60754395 C-3.17844856 60.42772644 -3.17629338 56.24793027 -3.17163086 52.06811523 C-3.16593357 46.69750013 -3.16921249 41.32693499 -3.17520332 35.95632172 C-3.17880854 31.84209819 -3.17767053 27.7278866 -3.17507553 23.61366272 C-3.17440615 21.63281753 -3.17523507 19.65197127 -3.17755508 17.67112732 C-3.18008096 14.90775664 -3.17624194 12.14446805 -3.1706543 9.38110352 C-3.17267853 8.55405411 -3.17470276 7.7270047 -3.17678833 6.87489319 C-3.15155861 0.17527506 -3.15155861 0.17527506 0 0 Z " fill="#FEFDFD" transform="translate(348.041259765625,336.886474609375)"/>
<path d="M0 0 C2.04049422 1.2704964 4.05017465 2.59431196 6 4 C8.14255793 3.61067144 8.14255793 3.61067144 10 3 C11.75 4.4375 11.75 4.4375 13 6 C12.67 6.99 12.34 7.98 12 9 C11.34 9 10.68 9 10 9 C10.515625 10.175625 11.03125 11.35125 11.5625 12.5625 C13.10940085 16.75171475 13.31827784 19.63320466 12 24 C9.4375 26.9375 9.4375 26.9375 7 29 C3.65001479 27.88333826 3.20659778 27.25305075 1.3125 24.4375 C0.65701172 23.47650391 0.65701172 23.47650391 -0.01171875 22.49609375 C-0.33785156 22.00238281 -0.66398437 21.50867188 -1 21 C0.15173355 18.53199953 1.04783565 16.95216435 3 15 C3.6425235 12.93125966 3.6425235 12.93125966 4 11 C1.69 11.66 -0.62 12.32 -3 13 C-2.95286865 13.9446814 -2.95286865 13.9446814 -2.90478516 14.90844727 C-2.77920754 17.79275844 -2.70176521 20.67649371 -2.625 23.5625 C-2.54958984 25.0484668 -2.54958984 25.0484668 -2.47265625 26.56445312 C-2.37169128 31.62952906 -2.49569506 35.12134743 -5.73828125 39.171875 C-7.66861549 41.06714853 -8.8029789 41.93173818 -11.37890625 42.82421875 C-16.58960384 42.49796756 -19.04017442 41.62984012 -23 38 C-25.68507329 37.21053391 -25.68507329 37.21053391 -28 37 C-28.97060014 33.54803951 -29.43756806 30.12641346 -29.8125 26.5625 C-29.94269531 25.45003906 -30.07289063 24.33757812 -30.20703125 23.19140625 C-29.95196894 19.25959672 -28.68670212 17.79104007 -26 15 C-21.88710505 16.37096498 -20.43968977 18.47600367 -18 22 C-18.125 24.625 -18.125 24.625 -19 27 C-19.185625 27.763125 -19.37125 28.52625 -19.5625 29.3125 C-19.706875 29.869375 -19.85125 30.42625 -20 31 C-17.24358584 30.50243908 -17.24358584 30.50243908 -15 29 C-14.69476038 24.34911285 -14.69476038 24.34911285 -16 20 C-16.17471848 17.90051399 -16.26717852 15.79375592 -16.3125 13.6875 C-16.34988281 12.55699219 -16.38726562 11.42648438 -16.42578125 10.26171875 C-15.91269709 6.33121161 -14.74848923 4.79801156 -12 2 C-7.98029083 -0.67980611 -4.7275876 -0.70428103 0 0 Z " fill="#F3762E" transform="translate(309,197)"/>
<path d="M0 0 C0.33 0 0.66 0 1 0 C1.33 23.43 1.66 46.86 2 71 C18.81416394 70.52730531 18.81416394 70.52730531 35.62353516 69.91894531 C55.50441678 69.44259976 55.50441678 69.44259976 63.390625 76.76171875 C64.90031364 78.30138416 66.32666691 79.86936672 67.71492004 81.51899719 C69.65602019 83.7560368 71.88156976 85.63637645 74.125 87.5625 C74.90488281 88.27277344 75.68476563 88.98304688 76.48828125 89.71484375 C78.34979476 91.40844469 80.2216006 93.08556783 82.10546875 94.75390625 C83.1746544 95.71074173 84.24366727 96.66777032 85.3125 97.625 C86.76076172 98.91277344 86.76076172 98.91277344 88.23828125 100.2265625 C93.0750877 105.08389288 96.2781408 108.30301594 96.47583008 115.29272461 C96.43344624 117.32998415 96.36324224 119.36679934 96.26953125 121.40234375 C96.22562508 123.0188961 96.22562508 123.0188961 96.18083191 124.66810608 C96.08227796 128.09249478 95.9479234 131.51439089 95.8125 134.9375 C95.73916651 137.26620262 95.6681771 139.59498031 95.59960938 141.92382812 C95.42687786 147.61703513 95.22478125 153.30862313 95 159 C94.67 159 94.34 159 94 159 C94.03117165 158.11035805 94.03117165 158.11035805 94.06297302 157.20274353 C94.26661519 150.95521691 94.36138428 144.71236285 94.39672852 138.46166992 C94.42360428 136.13860573 94.47702832 133.81567528 94.55883789 131.49389648 C95.27307684 115.42182991 95.27307684 115.42182991 87.63063049 101.91297913 C84.05213901 98.54607697 80.42042459 95.2102123 76 93 C76.05220703 94.04800781 76.05220703 94.04800781 76.10546875 95.1171875 C76.13253906 96.02726562 76.15960938 96.93734375 76.1875 97.875 C76.23970703 99.23238281 76.23970703 99.23238281 76.29296875 100.6171875 C76.14794922 101.79667969 76.14794922 101.79667969 76 103 C72.29758718 105.46827522 70.3408889 105.23759026 65.9375 105.1875 C64.68839844 105.18105469 63.43929687 105.17460937 62.15234375 105.16796875 C59 105 59 105 57 104 C56.97314588 101.68756208 56.95367159 99.3750373 56.9375 97.0625 C56.92589844 95.77472656 56.91429687 94.48695313 56.90234375 93.16015625 C57 90 57 90 58 89 C60.18292774 88.76518307 62.37203174 88.58636677 64.5625 88.4375 C65.76003906 88.35371094 66.95757812 88.26992187 68.19140625 88.18359375 C69.11824219 88.12300781 70.04507813 88.06242187 71 88 C69.2725597 86.4147483 67.54312043 84.83177374 65.8125 83.25 C64.84957031 82.36828125 63.88664062 81.4865625 62.89453125 80.578125 C61.93933594 79.72734375 60.98414063 78.8765625 60 78 C59.36827881 77.29866943 58.73655762 76.59733887 58.08569336 75.87475586 C53.21232129 72.91387097 48.3298786 73.41651361 42.734375 73.42578125 C40.95066498 73.40453438 40.95066498 73.40453438 39.13092041 73.38285828 C35.33718791 73.34094762 31.54393153 73.32571007 27.75 73.3125 C23.942007 73.28349174 20.13413611 73.24902096 16.32623291 73.21000671 C13.95694494 73.18743066 11.58758095 73.17166558 9.21820068 73.16316223 C8.15329407 73.15612778 7.08838745 73.14909332 5.99121094 73.1418457 C4.57820709 73.13662651 4.57820709 73.13662651 3.13665771 73.13130188 C1 73 1 73 0 72 C-0.09436529 69.76070114 -0.11742327 67.5183825 -0.11352539 65.27709961 C-0.11367142 64.5746965 -0.11381744 63.8722934 -0.1139679 63.14860535 C-0.11326872 60.81648722 -0.10547617 58.484448 -0.09765625 56.15234375 C-0.09579208 54.53951562 -0.09436818 52.92668693 -0.09336853 51.31385803 C-0.08954323 47.06084643 -0.07971285 42.80786876 -0.06866455 38.55487061 C-0.05845069 34.2182257 -0.05387096 29.88157533 -0.04882812 25.54492188 C-0.03809059 17.02993231 -0.02101403 8.51497037 0 0 Z " fill="#F3752B" transform="translate(147,140)"/>
<path d="M0 0 C2.51605026 0.04951083 3.83817977 0.09271148 6.0625 1.3125 C8.77699621 6.26246367 8.33300073 12.82059631 8.375 18.375 C8.395625 19.06464844 8.41625 19.75429688 8.4375 20.46484375 C8.47170543 24.937204 7.80523323 27.66281917 5.125 31.25 C3.27789495 33.09710505 0.69972546 32.59739293 -1.76953125 32.7734375 C-3.875 32.25 -3.875 32.25 -6.109375 30.3828125 C-8.66539087 25.8475808 -8.42158811 21.8665843 -8.3125 16.75 C-8.31958984 15.81285156 -8.32667969 14.87570312 -8.33398438 13.91015625 C-8.27188872 7.17516623 -7.82405534 0.50477776 0 0 Z " fill="#F3752B" transform="translate(302.875,375.75)"/>
<path d="M0 0 C2.45840605 -0.02691685 4.91651882 -0.04679802 7.375 -0.0625 C8.07367188 -0.07087891 8.77234375 -0.07925781 9.4921875 -0.08789062 C14.7734375 -0.11328125 14.7734375 -0.11328125 17 1 C17 5.95 17 10.9 17 16 C11.06 16 5.12 16 -1 16 C-1.125 2.25 -1.125 2.25 0 0 Z " fill="#F37831" transform="translate(177,253)"/>
<path d="M0 0 C1.12535156 0.00580078 1.12535156 0.00580078 2.2734375 0.01171875 C3.02367187 0.00785156 3.77390625 0.00398438 4.546875 0 C10.14682697 0.01010822 10.14682697 0.01010822 11.2734375 1.13671875 C11.34615491 3.4898543 11.35714618 5.84505543 11.3359375 8.19921875 C11.32691406 9.48957031 11.31789062 10.77992188 11.30859375 12.109375 C11.29699219 13.10839844 11.28539062 14.10742188 11.2734375 15.13671875 C8.22361492 16.66163004 5.05221211 16.28033309 1.7109375 16.26171875 C1.01291016 16.26558594 0.31488281 16.26945312 -0.40429688 16.2734375 C-5.59992256 16.26335869 -5.59992256 16.26335869 -6.7265625 15.13671875 C-6.82565552 12.8051182 -6.85626754 10.47041933 -6.8515625 8.13671875 C-6.85414063 6.85796875 -6.85671875 5.57921875 -6.859375 4.26171875 C-6.63612135 -0.99130828 -4.76636035 0.00860354 0 0 Z " fill="#F3772F" transform="translate(210.7265625,276.86328125)"/>
<path d="M0 0 C0.69802734 0.00386719 1.39605469 0.00773438 2.11523438 0.01171875 C2.80939453 0.00785156 3.50355469 0.00398437 4.21875 0 C9.42445449 0.01007881 9.42445449 0.01007881 11.67773438 1.13671875 C11.70458849 3.44915667 11.72406279 5.76168145 11.74023438 8.07421875 C11.75183594 9.36199219 11.7634375 10.64976562 11.77539062 11.9765625 C11.67773438 15.13671875 11.67773438 15.13671875 10.67773438 16.13671875 C8.00042058 16.23653089 5.35469263 16.2755175 2.67773438 16.26171875 C1.55238281 16.26751953 1.55238281 16.26751953 0.40429688 16.2734375 C-5.19565509 16.26332928 -5.19565509 16.26332928 -6.32226562 15.13671875 C-6.42135865 12.8051182 -6.45197067 10.47041933 -6.44726562 8.13671875 C-6.44984375 6.85796875 -6.45242187 5.57921875 -6.45507812 4.26171875 C-6.23860523 -0.83176122 -4.65180549 0.00902387 0 0 Z " fill="#F37831" transform="translate(210.322265625,252.86328125)"/>
<path d="M0 0 C0.69416016 -0.01224609 1.38832031 -0.02449219 2.10351562 -0.03710938 C3.92470901 -0.04239842 5.7453692 0.06580793 7.5625 0.1875 C9.5625 2.1875 9.5625 2.1875 9.79296875 5.19140625 C9.77169922 6.95291016 9.77169922 6.95291016 9.75 8.75 C9.74355469 9.92691406 9.73710937 11.10382813 9.73046875 12.31640625 C9.5625 15.1875 9.5625 15.1875 8.5625 16.1875 C5.69982433 16.26075168 2.861781 16.27988205 0 16.25 C-0.80630859 16.24548828 -1.61261719 16.24097656 -2.44335938 16.23632812 C-4.44143756 16.22450518 -6.43947783 16.20656914 -8.4375 16.1875 C-8.46435095 13.70826199 -8.48426547 11.2293116 -8.5 8.75 C-8.51256836 7.68942383 -8.51256836 7.68942383 -8.52539062 6.60742188 C-8.53403588 4.80056441 -8.48970011 2.99362397 -8.4375 1.1875 C-6.45630645 -0.79369355 -2.70304936 0.00249589 0 0 Z " fill="#F37831" transform="translate(156.4375,252.8125)"/>
<path d="M0 0 C2.61055594 -0.24890658 4.96094922 -0.3272977 7.5625 -0.25 C8.60954102 -0.24226563 8.60954102 -0.24226563 9.67773438 -0.234375 C14.8458282 -0.1541718 14.8458282 -0.1541718 16 1 C16.09909302 3.33160055 16.12970504 5.66629942 16.125 8 C16.12886719 9.918125 16.12886719 9.918125 16.1328125 11.875 C16 15 16 15 15 16 C12.3226862 16.09981214 9.67695825 16.13879875 7 16.125 C5.87464844 16.13080078 5.87464844 16.13080078 4.7265625 16.13671875 C-0.87338947 16.12661053 -0.87338947 16.12661053 -2 15 C-2.12548989 13.04469236 -2.17575363 11.08429521 -2.1875 9.125 C-2.20167969 8.05507813 -2.21585938 6.98515625 -2.23046875 5.8828125 C-2 3 -2 3 0 0 Z " fill="#F3762E" transform="translate(150,277)"/>
<path d="M0 0 C1.38294718 0.01329757 2.76582404 0.03715018 4.1484375 0.0703125 C4.85484375 0.07933594 5.56125 0.08835937 6.2890625 0.09765625 C8.03399848 0.12123647 9.77876045 0.15710789 11.5234375 0.1953125 C12.96551691 3.07947133 12.61738637 5.61252778 12.5859375 8.8203125 C12.57691406 10.00882812 12.56789062 11.19734375 12.55859375 12.421875 C12.54699219 13.33710938 12.53539062 14.25234375 12.5234375 15.1953125 C9.47361492 16.72022379 6.30221211 16.33892684 2.9609375 16.3203125 C2.26291016 16.32417969 1.56488281 16.32804687 0.84570312 16.33203125 C-4.34992256 16.32195244 -4.34992256 16.32195244 -5.4765625 15.1953125 C-5.60193991 13.05223354 -5.65230614 10.90452364 -5.6640625 8.7578125 C-5.67824219 7.58347656 -5.69242188 6.40914063 -5.70703125 5.19921875 C-5.36492843 0.74028536 -4.41906055 0.24826183 0 0 Z " fill="#F3752C" transform="translate(181.4765625,276.8046875)"/>
<path d="M0 0 C2.64590014 -0.02684679 5.29153096 -0.04676357 7.9375 -0.0625 C8.69224609 -0.07087891 9.44699219 -0.07925781 10.22460938 -0.08789062 C12.14994313 -0.09652441 14.07535581 -0.05224333 16 0 C17 1 17 1 17.09765625 4.16015625 C17.08605469 5.44792969 17.07445312 6.73570312 17.0625 8.0625 C17.05347656 9.35285156 17.04445312 10.64320313 17.03515625 11.97265625 C17.02355469 12.97167969 17.01195312 13.97070312 17 15 C14.02760209 16.48619895 11.30380422 16.13177009 8 16.125 C6.1128125 16.12886719 6.1128125 16.12886719 4.1875 16.1328125 C1 16 1 16 -1 15 C-1.02703381 13.06257659 -1.04641125 11.12504521 -1.0625 9.1875 C-1.07410156 8.10855469 -1.08570313 7.02960938 -1.09765625 5.91796875 C-1 3 -1 3 0 0 Z " fill="#F37830" transform="translate(149,229)"/>
<path d="M0 0 C2.64590014 -0.02684679 5.29153096 -0.04676357 7.9375 -0.0625 C8.69224609 -0.07087891 9.44699219 -0.07925781 10.22460938 -0.08789062 C12.14994313 -0.09652441 14.07535581 -0.05224333 16 0 C17.87243981 1.87243981 17.17380392 4.93659518 17.1875 7.4375 C17.20167969 8.61183594 17.21585938 9.78617188 17.23046875 10.99609375 C17 14 17 14 15 16 C11.8125 16.265625 11.8125 16.265625 8 16.25 C6.741875 16.25515625 5.48375 16.2603125 4.1875 16.265625 C1 16 1 16 -1 14 C-1.23046875 11.25 -1.23046875 11.25 -1.1875 8 C-1.18105469 6.9275 -1.17460937 5.855 -1.16796875 4.75 C-1 2 -1 2 0 0 Z " fill="#F3762E" transform="translate(177,229)"/>
<path d="M0 0 C1.1653125 -0.00128906 2.330625 -0.00257813 3.53125 -0.00390625 C4.7584375 -0.00003906 5.985625 0.00382812 7.25 0.0078125 C9.09078125 0.00201172 9.09078125 0.00201172 10.96875 -0.00390625 C12.71671875 -0.00197266 12.71671875 -0.00197266 14.5 0 C15.57765625 0.00112793 16.6553125 0.00225586 17.765625 0.00341797 C20.25 0.1328125 20.25 0.1328125 21.25 1.1328125 C21.3828125 2.9453125 21.3828125 2.9453125 21.375 5.1328125 C21.37886719 6.215625 21.37886719 6.215625 21.3828125 7.3203125 C21.25 9.1328125 21.25 9.1328125 20.25 10.1328125 C18.25035018 10.22039253 16.2476389 10.23977826 14.24609375 10.23046875 C13.03115234 10.22724609 11.81621094 10.22402344 10.56445312 10.22070312 C9.28505859 10.21232422 8.00566406 10.20394531 6.6875 10.1953125 C5.40423828 10.19080078 4.12097656 10.18628906 2.79882812 10.18164062 C-0.38416022 10.16980795 -3.56705762 10.15332318 -6.75 10.1328125 C-6.77689216 8.65374358 -6.79634621 7.17453767 -6.8125 5.6953125 C-6.82410156 4.87160156 -6.83570313 4.04789062 -6.84765625 3.19921875 C-6.64500739 -1.08883104 -3.60832481 0.00377666 0 0 Z " fill="#FEF9F6" transform="translate(145.75,389.8671875)"/>
<path d="M0 0 C0 4.29 0 8.58 0 13 C-5.02932494 16.01759496 -8.28723904 16.46070653 -14 16 C-16.2421875 14.98046875 -16.2421875 14.98046875 -18 14 C-18.08121924 12.39667209 -18.13929134 10.79215974 -18.1875 9.1875 C-18.22230469 8.29417969 -18.25710938 7.40085937 -18.29296875 6.48046875 C-18 4 -18 4 -16.67578125 2.23828125 C-11.92276578 -1.27385373 -5.58695999 -0.06007484 0 0 Z " fill="#F47E3A" transform="translate(415,397)"/>
<path d="M0 0 C0.33 0 0.66 0 1 0 C1.33 23.43 1.66 46.86 2 71 C18.81416394 70.52730531 18.81416394 70.52730531 35.62353516 69.91894531 C55.50314768 69.44195155 55.50314768 69.44195155 63.3359375 76.734375 C64.83152793 78.27078391 66.24966512 79.83699937 67.63348389 81.4744873 C69.8518257 83.95093714 72.40349756 85.93103939 75 88 C74.67 88.66 74.34 89.32 74 90 C65.585 90.495 65.585 90.495 57 91 C57.33 90.34 57.66 89.68 58 89 C60.94140625 88.5859375 60.94140625 88.5859375 64.5625 88.375 C66.35880859 88.26285156 66.35880859 88.26285156 68.19140625 88.1484375 C69.11824219 88.09945312 70.04507813 88.05046875 71 88 C69.2725597 86.4147483 67.54312043 84.83177374 65.8125 83.25 C64.84957031 82.36828125 63.88664062 81.4865625 62.89453125 80.578125 C61.93933594 79.72734375 60.98414063 78.8765625 60 78 C59.36827881 77.29866943 58.73655762 76.59733887 58.08569336 75.87475586 C53.21232129 72.91387097 48.3298786 73.41651361 42.734375 73.42578125 C40.95066498 73.40453438 40.95066498 73.40453438 39.13092041 73.38285828 C35.33718791 73.34094762 31.54393153 73.32571007 27.75 73.3125 C23.942007 73.28349174 20.13413611 73.24902096 16.32623291 73.21000671 C13.95694494 73.18743066 11.58758095 73.17166558 9.21820068 73.16316223 C8.15329407 73.15612778 7.08838745 73.14909332 5.99121094 73.1418457 C4.57820709 73.13662651 4.57820709 73.13662651 3.13665771 73.13130188 C1 73 1 73 0 72 C-0.09436529 69.76070114 -0.11742327 67.5183825 -0.11352539 65.27709961 C-0.11367142 64.5746965 -0.11381744 63.8722934 -0.1139679 63.14860535 C-0.11326872 60.81648722 -0.10547617 58.484448 -0.09765625 56.15234375 C-0.09579208 54.53951562 -0.09436818 52.92668693 -0.09336853 51.31385803 C-0.08954323 47.06084643 -0.07971285 42.80786876 -0.06866455 38.55487061 C-0.05845069 34.2182257 -0.05387096 29.88157533 -0.04882812 25.54492188 C-0.03809059 17.02993231 -0.02101403 8.51497037 0 0 Z " fill="#F58F53" transform="translate(147,140)"/>
<path d="M0 0 C5.19523439 -0.79057915 7.81393706 0.17689461 12.1875 3.125 C16.81306161 6.64689418 20.41457405 9.61471079 21.44921875 15.59765625 C21.71683664 18.06877728 21.90185499 20.51693126 22 23 C20.35 23 18.7 23 17 23 C16.7525 21.80375 16.505 20.6075 16.25 19.375 C14.87434947 13.97748228 12.91617373 10.18231996 8.0625 7.1875 C5.34403918 6.13340295 2.8776492 5.42318371 0 5 C0 3.35 0 1.7 0 0 Z " fill="#FEF3ED" transform="translate(162,73)"/>
<path d="M0 0 C2.86268684 0.51622222 4.13595104 0.98335139 5.90625 3.34375 C5.90625 5.98375 5.90625 8.62375 5.90625 11.34375 C0.62625 11.34375 -4.65375 11.34375 -10.09375 11.34375 C-10.09375 5.34375 -10.09375 5.34375 -8.59375 2.46875 C-5.53922593 -0.12759546 -3.90033541 -0.29106981 0 0 Z " fill="#F3772F" transform="translate(100.09375,374.65625)"/>
<path d="M0 0 C0.89460937 -0.00128906 1.78921875 -0.00257812 2.7109375 -0.00390625 C3.65195313 -0.00003906 4.59296875 0.00382812 5.5625 0.0078125 C6.97402344 0.00201172 6.97402344 0.00201172 8.4140625 -0.00390625 C9.75597656 -0.00197266 9.75597656 -0.00197266 11.125 0 C11.95128906 0.00112793 12.77757812 0.00225586 13.62890625 0.00341797 C15.5625 0.1328125 15.5625 0.1328125 16.5625 1.1328125 C16.6875 3.6328125 16.6875 3.6328125 16.5625 6.1328125 C14.97312444 7.72218806 13.32350154 7.26262393 11.125 7.265625 C9.78308594 7.26755859 9.78308594 7.26755859 8.4140625 7.26953125 C7.47304687 7.26566406 6.53203125 7.26179687 5.5625 7.2578125 C4.15097656 7.26361328 4.15097656 7.26361328 2.7109375 7.26953125 C1.81632813 7.26824219 0.92171875 7.26695312 0 7.265625 C-0.82628906 7.26449707 -1.65257812 7.26336914 -2.50390625 7.26220703 C-4.4375 7.1328125 -4.4375 7.1328125 -5.4375 6.1328125 C-5.5625 3.6328125 -5.5625 3.6328125 -5.4375 1.1328125 C-3.84812444 -0.45656306 -2.19850154 0.00300107 0 0 Z " fill="#F37C37" transform="translate(179.4375,121.8671875)"/>
<path d="M0 0 C0.99 0 1.98 0 3 0 C3 0.66 3 1.32 3 2 C3.56203125 2.24492187 4.1240625 2.48984375 4.703125 2.7421875 C7.41865854 4.22926539 9.46391438 6.04062782 11.75 8.125 C12.94882813 9.21167969 12.94882813 9.21167969 14.171875 10.3203125 C14.77515625 10.87460938 15.3784375 11.42890625 16 12 C11.92202207 16.49983772 7.21831159 19.78444259 2.23046875 23.23046875 C1.12638672 24.10638672 1.12638672 24.10638672 0 25 C0 25.66 0 26.32 0 27 C0.80824219 26.38511719 1.61648437 25.77023438 2.44921875 25.13671875 C3.52854778 24.32018287 4.60798038 23.50378389 5.6875 22.6875 C6.48317383 22.08131836 6.48317383 22.08131836 7.29492188 21.46289062 C10.42740691 19.09911358 13.59558857 16.95169412 17 15 C17 15.99 17 16.98 17 18 C15.47119141 19.42626953 15.47119141 19.42626953 13.3515625 20.8828125 C12.59359375 21.41003906 11.835625 21.93726563 11.0546875 22.48046875 C10.25289062 23.02316406 9.45109375 23.56585938 8.625 24.125 C7.8309375 24.67542969 7.036875 25.22585937 6.21875 25.79296875 C0.43645368 29.78177316 0.43645368 29.78177316 -2 31 C-2.33 28.69 -2.66 26.38 -3 24 C1.95 20.37 6.9 16.74 12 13 C7.94240093 7.78913082 7.94240093 7.78913082 3 4 C1.68 4 0.36 4 -1 4 C-0.67 2.68 -0.34 1.36 0 0 Z " fill="#F6955D" transform="translate(224,142)"/>
<path d="M0 0 C5.86379238 4.18842313 11.22654657 8.5786527 16 14 C16.85980469 14.96566895 17.71960938 15.93133789 18.60546875 16.92626953 C22.04451787 21.80930354 21.5349498 26.63705142 21.26953125 32.40234375 C21.22562508 34.0188961 21.22562508 34.0188961 21.18083191 35.66810608 C21.08227796 39.09249478 20.9479234 42.51439089 20.8125 45.9375 C20.73916651 48.26620262 20.6681771 50.59498031 20.59960938 52.92382812 C20.42687786 58.61703513 20.22478125 64.30862313 20 70 C19.67 70 19.34 70 19 70 C19.0207811 69.40690536 19.04156219 68.81381073 19.06297302 68.20274353 C19.26661519 61.95521691 19.36138428 55.71236285 19.39672852 49.46166992 C19.42360428 47.13860573 19.47702832 44.81567528 19.55883789 42.49389648 C20.27307684 26.42182991 20.27307684 26.42182991 12.63063049 12.91297913 C9.05213901 9.54607697 5.42042459 6.2102123 1 4 C1 7.3 1 10.6 1 14 C0.67 14 0.34 14 0 14 C0 9.38 0 4.76 0 0 Z " fill="#F69F6D" transform="translate(222,229)"/>
<path d="M0 0 C3.07877133 -0.4505519 5.21010698 -0.50042912 7.88671875 1.1953125 C11.07028349 3.85162019 13.40889658 6.10720328 15 10 C15.125 12.75 15.125 12.75 15 15 C13.02 15.33 11.04 15.66 9 16 C8.9175 14.906875 8.835 13.81375 8.75 12.6875 C8.34926707 9.02500718 8.34926707 9.02500718 6.1875 7.125 C4.10403092 6.05350162 2.30034998 5.41077678 0 5 C0 3.35 0 1.7 0 0 Z " fill="#FDEDE4" transform="translate(160,82)"/>
<path d="M0 0 C7.31356061 5.30591652 14.1430354 11.12558825 21 17 C20.67 17.66 20.34 18.32 20 19 C11.585 19.495 11.585 19.495 3 20 C3.33 19.34 3.66 18.68 4 18 C6.94140625 17.5859375 6.94140625 17.5859375 10.5625 17.375 C11.76003906 17.30023438 12.95757812 17.22546875 14.19140625 17.1484375 C15.58166016 17.07496094 15.58166016 17.07496094 17 17 C15.29314307 15.43588733 13.58444032 13.87378883 11.875 12.3125 C11.37379639 11.85423828 10.87259277 11.39597656 10.35620117 10.92382812 C7.73292482 8.53617539 5.08551644 6.21173118 2.3125 4 C1.549375 3.34 0.78625 2.68 0 2 C0 1.34 0 0.68 0 0 Z " fill="#F69B66" transform="translate(201,211)"/>
<path d="M0 0 C0.66 0.33 1.32 0.66 2 1 C-7 10 -16 19 -25 28 C-25 24 -25 24 -22.578125 21.40625 C-21.47766301 20.42738695 -20.36760184 19.4592474 -19.25 18.5 C-18.06174481 17.44502096 -16.87560128 16.38765947 -15.69140625 15.328125 C-15.08184082 14.78478516 -14.47227539 14.24144531 -13.84423828 13.68164062 C-10.86465537 10.96475327 -8.02352995 8.11533846 -5.1875 5.25 C-4.66639648 4.72470703 -4.14529297 4.19941406 -3.60839844 3.65820312 C-2.40341228 2.44096287 -1.20134887 1.2208302 0 0 Z " fill="#FDE5D7" transform="translate(202,165)"/>
<path d="M0 0 C7.71227303 1.89168961 7.71227303 1.89168961 10 5 C10.2487793 7.26831055 10.2487793 7.26831055 10.07421875 9.88671875 C9.99204102 11.2934082 9.99204102 11.2934082 9.90820312 12.72851562 C9.83537109 13.70498047 9.76253906 14.68144531 9.6875 15.6875 C9.62626953 16.67556641 9.56503906 17.66363281 9.50195312 18.68164062 C9.34867116 21.12236119 9.18082846 23.56119089 9 26 C8.67 26 8.34 26 8 26 C7.98582031 24.83082031 7.97164062 23.66164063 7.95703125 22.45703125 C7.91011562 20.90881543 7.86186831 19.36063956 7.8125 17.8125 C7.80669922 17.04357422 7.80089844 16.27464844 7.79492188 15.48242188 C7.63183864 11.26037802 7.34639092 9.449372 4.6875 6 C1.42967788 3.57557424 -0.99057704 3.23584841 -5 3 C-5 2.67 -5 2.34 -5 2 C-3.35 2 -1.7 2 0 2 C0 1.34 0 0.68 0 0 Z " fill="#F59156" transform="translate(159,86)"/>
<path d="M0 0 C-0.5024484 4.39642348 -1.97295941 6.7948982 -5 10 C-5.99 10.33 -6.98 10.66 -8 11 C-8.48635236 4.67741935 -8.48635236 4.67741935 -6.25 1.5625 C-4 0 -4 0 0 0 Z " fill="#FEF2EC" transform="translate(313,208)"/>
<path d="M0 0 C0.66 0.33 1.32 0.66 2 1 C2 1.66 2 2.32 2 3 C0.62304688 4.23681641 0.62304688 4.23681641 -1.28125 5.6015625 C-1.95800781 6.09140625 -2.63476562 6.58125 -3.33203125 7.0859375 C-4.40517578 7.84777344 -4.40517578 7.84777344 -5.5 8.625 C-6.57314453 9.3984375 -6.57314453 9.3984375 -7.66796875 10.1875 C-9.44120429 11.46422959 -11.21859948 12.73470027 -13 14 C-13.33 13.01 -13.66 12.02 -14 11 C-9.38 7.37 -4.76 3.74 0 0 Z " fill="#FDEBE1" transform="translate(237,156)"/>
<path d="M0 0 C2 2 2 2 2.3125 5.4375 C2 9 2 9 0.75 11 C-1 12 -1 12 -3.1875 11.6875 C-3.785625 11.460625 -4.38375 11.23375 -5 11 C-4.38722388 8.03824877 -3.74627478 6.61941217 -2 4 C-1.34 4 -0.68 4 0 4 C0 2.68 0 1.36 0 0 Z " fill="#FDE6DA" transform="translate(293,217)"/>
<path d="M0 0 C0.66 0.66 1.32 1.32 2 2 C0.04594482 3.50587739 -1.91281284 5.00478644 -3.875 6.5 C-4.43058594 6.92925781 -4.98617187 7.35851562 -5.55859375 7.80078125 C-9.7734375 11 -9.7734375 11 -12 11 C-12 10.34 -12 9.68 -12 9 C-10.03062339 7.37643654 -8.06654852 5.86440434 -6 4.375 C-5.42765625 3.95476562 -4.8553125 3.53453125 -4.265625 3.1015625 C-2.84796067 2.06194199 -1.42450738 1.03022409 0 0 Z " fill="#F69D69" transform="translate(240,157)"/>
<path d="M0 0 C1.23556641 0.01740234 1.23556641 0.01740234 2.49609375 0.03515625 C3.32238281 0.04417969 4.14867187 0.05320313 5 0.0625 C5.63808594 0.07410156 6.27617187 0.08570313 6.93359375 0.09765625 C6.93359375 0.42765625 6.93359375 0.75765625 6.93359375 1.09765625 C5.17015625 1.12859375 5.17015625 1.12859375 3.37109375 1.16015625 C-2.03545458 1.77694608 -4.71427515 5.08557434 -8.06640625 9.09765625 C-8.06640625 6.09765625 -8.06640625 6.09765625 -5.62890625 3.47265625 C-4.78328125 2.68890625 -3.93765625 1.90515625 -3.06640625 1.09765625 C-2.06640625 0.09765625 -2.06640625 0.09765625 0 0 Z " fill="#F58849" transform="translate(302.06640625,196.90234375)"/>
<path d="M0 0 C8.44646925 6.15034169 8.44646925 6.15034169 12 10 C8.07290865 10 7.1810287 8.72099538 4.3125 6.125 C3.50425781 5.40570313 2.69601563 4.68640625 1.86328125 3.9453125 C0 2 0 2 0 0 Z " fill="#F6945B" transform="translate(201,211)"/>
<path d="M0 0 C0.99 0 1.98 0 3 0 C3 0.66 3 1.32 3 2 C4.32 2.66 5.64 3.32 7 4 C6.34 4.66 5.68 5.32 5 6 C4.34 5.34 3.68 4.68 3 4 C1.68 4 0.36 4 -1 4 C-0.67 2.68 -0.34 1.36 0 0 Z " fill="#F7A16F" transform="translate(224,142)"/>
<path d="M0 0 C0.66 0.33 1.32 0.66 2 1 C-0.31 3.31 -2.62 5.62 -5 8 C-5 5 -5 5 -2.5 2.3125 C-1.675 1.549375 -0.85 0.78625 0 0 Z " fill="#FDE5D7" transform="translate(136,113)"/>
</svg>
